<?xml version="1.0" encoding="UTF-8"?>
<svg width="16px" height="16px" viewBox="0 0 16 16" version="1.1" xmlns="http://www.w3.org/2000/svg" xmlns:xlink="http://www.w3.org/1999/xlink">
	<path d="M6.282,15.808 C9.246,15.77 12.286,13.984 13.882,11.666 C14.566,10.64 14.528,9.538 14.414,9.196 C14.11,8.436 13.616,8.512 13.198,9.12 C11.64,11.476 9.094,14.288 6.206,14.288 C5.066,14.288 4.382,13.11 4.382,11.438 C4.382,10.754 4.496,9.956 4.724,9.196 C5.598,9.766 6.51,10.032 7.422,10.032 C10.766,10.032 13.312,6.042 13.312,3.762 C13.312,3.268 13.16,2.698 12.932,2.356 C12.4,1.596 11.64,0.988 10.576,0.38 C10.196,0.152 9.778,0.076 9.246,0.076 C7.042,0.076 3.964,2.09 1.988,6.118 C1.19,7.638 0.81,9.12 0.81,10.488 C0.81,13.528 2.748,15.846 6.282,15.808 Z M6.092,8.018 C5.826,8.018 5.56,7.942 5.256,7.752 C7.08,4.104 9.892,1.786 10.462,2.242 C10.88,2.584 10.082,4.37 8.98,5.852 C8.22,6.878 7.004,8.018 6.092,8.018 Z" id="e" fill="#FAAB00" fill-rule="nonzero"></path>
</svg>
